<?xml version="1.0" encoding="UTF-8" standalone="no"?>
<svg
   xmlns:dc="http://purl.org/dc/elements/1.1/"
   xmlns:cc="http://creativecommons.org/ns#"
   xmlns:rdf="http://www.w3.org/1999/02/22-rdf-syntax-ns#"
   xmlns:svg="http://www.w3.org/2000/svg"
   xmlns="http://www.w3.org/2000/svg"
   version="1.1"
   id="svg894"
   width="196"
   height="71"
   viewBox="0 0 196 71">
  <metadata
     id="metadata900">
    <rdf:RDF>
      <cc:Work
         rdf:about="">
        <dc:format>image/svg+xml</dc:format>
        <dc:type
           rdf:resource="http://purl.org/dc/dcmitype/StillImage" />
        <dc:title></dc:title>
      </cc:Work>
    </rdf:RDF>
  </metadata>
  <defs
     id="defs898" />
  <g
     id="layer1" />
  <g
     id="g902">
    <path
       style="fill:#000000"
       d="m 119.64564,64.295266 c -0.66773,-3.1625 -1.20418,-9.729388 -1.1921,-14.593084 0.0268,-10.795126 0.81163,-11.876848 8.98407,-12.382696 6.47195,-0.400594 9.52677,0.796937 12.60276,4.94045 1.80162,2.426867 1.88617,3.145572 0.79753,6.779127 -1.41495,4.722691 -7.07722,9.400393 -12.64289,10.44452 l -3.53259,0.662718 0.65657,4.949482 c 0.63857,4.813795 0.58645,4.949483 -1.90136,4.949483 -2.30658,0 -2.67723,-0.565022 -3.77199,-5.75 z m 13.73239,-13.400432 c 1.28693,-1.209008 2.33987,-2.871821 2.33987,-3.695141 0,-2.489769 -3.13963,-5.154427 -6.0732,-5.154427 -5.18198,0 -5.9268,0.809354 -5.9268,6.440322 0,2.87449 0.25887,5.485218 0.57527,5.801618 1.00214,1.002132 6.65334,-1.108083 9.08486,-3.392372 z M 62.384564,64.378599 c -0.366667,-0.366666 -0.666667,-2.587371 -0.666667,-4.9349 0,-5.616764 -1.472481,-9.411711 -4.675955,-12.051092 -1.660367,-1.367996 -2.389301,-2.734903 -1.999772,-3.75 0.99861,-2.602336 5.527463,-1.899451 8.791344,1.36443 l 2.96177,2.96177 3.211307,-1.958032 c 1.766218,-1.076918 4.448806,-1.959715 5.961306,-1.961771 2.267663,-0.0031 2.75,0.43475 2.75,2.496262 0,1.375 -0.570539,2.5 -1.267865,2.5 -0.697327,0 -2.947327,1.141223 -5,2.536051 -3.125616,2.123911 -3.732135,3.10967 -3.732135,6.065741 0,1.94133 -0.465833,4.400107 -1.035184,5.463949 -1.011339,1.889706 -3.968524,2.597217 -5.298149,1.267592 z M 33.136335,60.137731 c -2.77213,-1.203105 -7.266249,-6.637915 -8.040763,-9.723823 -1.087168,-4.331623 0.398857,-9.606713 3.611209,-12.819065 2.764128,-2.764128 3.648655,-3.049577 9.449783,-3.049577 5.397301,0 6.804576,0.379887 8.980769,2.424314 3.216399,3.02165 3.560551,8.878834 0.675128,11.490107 -2.549417,2.307191 -10.959105,4.763347 -13.523057,3.949581 -1.81471,-0.575967 -1.895779,-0.459652 -0.69122,0.991752 1.796697,2.164888 9.882279,2.19928 12.943588,0.05506 1.247888,-0.874055 2.923016,-1.338178 3.722506,-1.031384 2.280442,0.875087 1.70305,4.411036 -1.010632,6.189108 -2.863046,1.87594 -13.080277,2.842005 -16.117311,1.523932 z M 43.60548,44.557456 c 1.485277,-1.511804 1.426267,-1.79383 -0.748367,-3.576703 -2.8263,-2.31714 -4.116747,-2.389542 -8.671335,-0.486514 -6.170746,2.578303 -3.359442,6.990876 3.919702,6.152295 2.138171,-0.246324 4.613171,-1.186409 5.5,-2.089078 z M 91.084611,59.127204 C 86.370748,56.25283 84.717413,53.250561 84.721635,47.57276 c 0.0072,-9.619218 6.527649,-15.411832 15.902075,-14.126926 5.47668,0.750663 8.56898,2.683107 10.61031,6.630614 2.11412,4.088239 2.14204,11.3154 0.056,14.499066 -4.07523,6.219591 -13.856569,8.423038 -20.205429,4.55169 z M 104.7179,53.045266 c 1.32101,-1.321013 2,-3.333333 2,-5.92742 0,-9.108948 -12.682675,-11.297815 -15.932636,-2.749769 -2.912795,7.661233 8.093754,14.516068 13.932636,8.677189 z M 1.7178979,57.297318 c 0,-2.093581 1.4173138,-4.22008 5.5,-8.252052 3.0250001,-2.987424 5.5000001,-5.784552 5.5000001,-6.21584 0,-0.431288 -2.7312981,-0.78416 -6.0695511,-0.78416 -5.72236421,0 -6.05127221,-0.128703 -5.75000001,-2.25 C 1.1940208,37.713388 1.7960542,37.523459 8.9554599,37.253426 22.05278,36.759429 23.893378,39.807385 15.717897,48.45175 c -2.75,2.907719 -4.999999,5.580782 -4.999999,5.940139 0,0.359358 2.506297,0.653377 5.56955,0.653377 5.203846,0 5.548569,0.147738 5.25,2.25 -0.303142,2.134459 -0.820229,2.264697 -10.06955,2.536212 L 1.7178979,60.11769 Z M 155.73761,58.760817 c -3.43421,-1.737625 -4.98765,-5.296284 -5.00497,-11.465551 -0.0144,-5.120124 -0.0863,-5.25 -2.90775,-5.25 -2.90573,0 -4.18774,-1.42389 -3.37635,-3.75 0.23982,-0.6875 1.66641,-1.25 3.1702,-1.25 2.5133,0 2.80951,-0.424125 3.66667,-5.249999 0.7708,-4.339695 1.32262,-5.305407 3.18249,-5.569551 2.42818,-0.344857 2.52936,-0.05169 2.26721,6.569551 l -0.16827,4.249999 h 5.57553 c 4.86578,0 5.57553,0.248827 5.57553,1.954687 0,1.479615 -0.91141,2.108443 -3.75,2.587319 -7.17372,1.21022 -7.25,1.271982 -7.25,5.870394 0,3.021829 0.59305,4.814328 2.02011,6.105801 1.96277,1.776281 2.10665,1.764198 5.06861,-0.425674 5.44872,-4.028413 8.26823,-0.18138 3.26526,4.455222 -2.94059,2.72524 -7.35688,3.180263 -11.33427,1.167802 z m 22.23029,0.253287 c -1.27474,-0.512384 -2.25,-1.765448 -2.25,-2.890924 0,-1.756641 0.78115,-2.020753 6.75,-2.282224 3.73008,-0.1634 6.66477,-0.735592 6.5595,-1.27894 -0.10477,-0.540788 -2.32617,-1.528067 -4.93645,-2.193954 -6.54626,-1.669966 -9.8021,-4.303098 -10.19169,-8.242441 -0.4598,-4.649326 1.90689,-7.565159 7.38543,-9.099053 5.97717,-1.673506 12.93321,0.218999 12.93321,3.518698 0,1.816361 -0.55649,1.969652 -6.06073,1.669478 -9.97384,-0.543925 -11.47939,4.455388 -2.07278,6.882865 2.27343,0.586684 4.87261,1.279878 5.77596,1.540431 2.15888,0.622686 4.21554,5.703936 3.37747,8.344475 -1.34502,4.237783 -11.09457,6.513775 -17.26992,4.031589 z"
       id="path906" />
    <path
       style="fill:#000000;stroke-width:0.232551"
       d="m 66.94733,40.864289 c -0.349245,-0.06723 -0.395125,-0.452169 -0.395125,-3.31476 0,-2.155698 -0.08367,-3.23867 -0.250119,-3.23867 -0.137561,0 -0.961668,-0.415568 -1.831347,-0.923483 -3.089709,-1.804501 -5.875887,-5.126354 -7.114352,-8.482174 -0.571854,-1.549549 -0.848809,-1.892034 -4.99381,-6.175284 l -4.38838,-4.534756 1.215688,-1.22621 1.215685,-1.226211 4.75946,4.779461 c 4.14872,4.166157 4.793336,4.911564 5.023445,5.808886 0.867858,3.384193 3.444763,6.614618 6.545449,8.205426 2.240131,1.149285 3.551616,1.472078 5.980894,1.472078 2.325996,0 3.679036,-0.305824 5.825277,-1.316697 3.992931,-1.88064 6.690969,-5.871926 7.203301,-10.656056 0.150982,-1.409863 0.294794,-1.757254 1.249843,-3.019272 1.633957,-2.159111 2.204536,-3.639799 2.207391,-5.728297 0.0035,-2.8064461 -1.272783,-4.9717358 -3.674551,-6.2324177 -1.013185,-0.5318258 -1.468418,-0.6213278 -3.160376,-0.6213278 -1.691958,0 -2.147193,0.089507 -3.160376,0.6213278 -4.95929,2.6031221 -4.980641,9.6553847 -0.03718,12.2887597 0.479635,0.255497 0.872064,0.510819 0.872064,0.567378 0,0.238289 -1.002602,2.811018 -1.164748,2.988817 -0.222114,0.243544 -1.259996,-0.286717 -3.454774,-1.765076 -3.549471,-2.390842 -5.914016,-3.009393 -9.03766,-2.364184 -2.067333,0.427013 -3.66811,1.179521 -4.925321,2.315342 -0.49055,0.443184 -0.946629,0.80578 -1.013507,0.80578 -0.157426,0 -5.503849,-6.665065 -5.648228,-7.04131 -0.09048,-0.235801 2.173482,-2.260743 2.527608,-2.260743 0.0596,0 0.907992,0.994154 1.885299,2.209237 0.97731,1.215083 1.829393,2.209237 1.893528,2.209237 0.06417,0 0.614674,-0.252386 1.223424,-0.560866 1.876411,-0.950848 3.714931,-1.372131 6.086814,-1.394755 1.215074,-0.0116 2.524836,0.04992 2.910564,0.13664 l 0.701329,0.157707 -0.08684,-1.719618 c -0.209203,-4.1428745 2.076607,-7.889702 5.997488,-9.8309249 1.694437,-0.83890772 1.790451,-0.85754092 4.418484,-0.85754092 2.540129,0 2.771973,0.0405235 4.258102,0.74450052 2.609513,1.2360985 4.76059,3.5753124 5.647444,6.1413613 0.309051,0.8942189 0.587259,1.1684731 2.242267,2.210396 l 1.889429,1.189516 -1.897876,1.217438 c -1.374266,0.881554 -1.939103,1.387451 -2.047293,1.83366 -0.305992,1.262044 -1.251576,3.104387 -2.277821,4.438073 -0.771071,1.002065 -1.058209,1.586353 -1.058209,2.153346 0,1.117829 -0.831517,3.958844 -1.608653,5.49623 -1.896626,3.752068 -5.217002,6.818203 -8.858155,8.179902 l -1.393313,0.521068 v 2.06461 2.064601 h -1.860406 -1.860413 v -1.74414 -1.744131 l -1.104619,-0.0039 c -0.607545,-0.002 -1.340085,-0.06625 -1.627866,-0.143398 -0.520637,-0.139524 -0.523238,-0.126801 -0.523238,2.561236 0,1.994462 -0.07612,2.70719 -0.29069,2.723358 -0.974317,0.07338 -2.698971,0.08479 -3.035005,0.0201 z m 4.088794,-14.220568 c -2.379064,-0.565397 -5.48056,-2.974218 -6.564084,-5.098101 -0.280688,-0.550195 -0.476884,-1.032089 -0.435987,-1.070859 0.04087,-0.03876 0.754574,-0.347064 1.585949,-0.685095 1.408062,-0.572511 1.527509,-0.586916 1.744131,-0.210293 0.566104,0.984222 2.325353,2.642174 3.279542,3.090694 0.573223,0.269446 1.508734,0.553843 2.078926,0.631997 l 1.036694,0.142098 v 1.712523 1.712526 l -0.988343,-0.02381 c -0.543587,-0.01308 -1.325162,-0.103851 -1.736828,-0.20169 z m 10.589103,-14.2083 c -2.018702,-1.506995 -0.890474,-4.6354213 1.671698,-4.6354213 0.799549,0 1.118445,0.1427475 1.766367,0.7906717 0.648198,0.6481965 0.790682,0.966687 0.790682,1.7673966 0,0.8007 -0.142484,1.1192 -0.790682,1.767388 -0.660834,0.660844 -0.956781,0.789467 -1.80227,0.783306 -0.640156,-0.0044 -1.240792,-0.178468 -1.635795,-0.473341 z"
       id="path4585" />
  </g>
</svg>
